Patient4_TMGait_0pt5_01_right_23_GRF.mot
version=1
nRows=52
nColumns=19
inDegrees=no
endheader
time	F1x	F1y	F1z	M1x	M1y	M1z	F2x	F2y	F2z	M2x	M2y	M2z	EC1x	EC1y	EC1z	EC2x	EC2y	EC2z
30.16	4.229	718.2761	63.6538	-249.6097	-52.0396	661.3929	-6.8589	-1.593	10.033	-3.7059	-4.6138	-1.0087	-0.0592	0.0182	-0.0073	-0.0462	0.0165	0.9585
30.1729	4.3101	724.7312	62.5413	-250.7328	-51.2165	665.4563	-4.6515	-0.6169	6.8413	-2.3106	-3.2007	-0.12413	-0.0592	0.0182	-0.0073	-0.0462	0.0165	0.9585
30.1859	4.5264	732.1874	61.7174	-252.2926	-50.538	670.0195	-2.8025	0.25383	4.112	-1.1107	-1.9511	0.68068	-0.0592	0.0182	-0.0073	-0.0462	0.0165	0.9585
30.1988	4.9537	740.2332	61.2228	-254.2361	-50.0138	674.7217	-1.4042	0.96127	2.0199	-0.1801	-0.96805	1.3538	-0.0592	0.0182	-0.0073	-0.0462	0.0165	0.9585
30.2117	5.6669	748.4061	61.0085	-256.4477	-49.5878	679.1544	-0.44313	1.493	0.56569	0.47901	-0.26614	1.8784	-0.0592	0.0182	-0.0073	-0.0462	0.0165	0.9585
30.2246	6.74	756.2552	61.0032	-258.7868	-49.1884	682.9229	0.14089	1.8622	-0.34261	0.90126	0.18977	2.2565	-0.0592	0.0182	-0.0073	-0.0462	0.0165	0.9585
30.2376	8.2177	763.4356	61.1009	-261.1305	-48.7227	685.7388	0.43516	2.0748	-0.82757	1.1299	0.45119	2.4682	-0.0592	0.0182	-0.0073	-0.0462	0.0165	0.9585
30.2505	10.1145	769.7389	61.1866	-263.3879	-48.0918	687.4475	0.5138	2.1295	-1.0212	1.2035	0.58116	2.5005	-0.0592	0.0182	-0.0073	-0.0462	0.0165	0.9585
30.2634	12.4176	775.0819	61.142	-265.4964	-47.1961	688.0224	0.45254	1.9991	-1.0369	1.1458	0.63114	2.3273	-0.0592	0.0182	-0.0073	-0.0462	0.0165	0.9585
30.2764	15.0666	779.4007	60.9033	-267.3857	-45.988	687.4747	0.30359	1.6251	-0.96497	0.96158	0.64702	1.8934	-0.0592	0.0182	-0.0073	-0.0462	0.0165	0.9585
30.2893	18.0014	782.5456	60.4761	-268.9451	-44.4818	685.7589	0.11299	0.93057	-0.86299	0.64066	0.65457	1.1198	-0.0592	0.0182	-0.0073	-0.0462	0.0165	0.9585
30.3022	21.1502	784.277	59.9296	-270.0311	-42.752	682.7691	-0.074824	-0.14372	-0.76921	0.16972	0.66913	-0.051385	-0.0592	0.0182	-0.0073	-0.0462	0.0165	0.9585
30.3151	24.459	784.3247	59.3451	-270.4949	-40.8852	678.3593	-0.21236	-1.6313	-0.70138	-0.45982	0.68677	-1.661	-0.0592	0.0182	-0.0073	-0.0462	0.0165	0.9585
30.3281	27.8797	782.4641	58.7832	-270.2155	-38.9543	672.4093	-0.24177	-3.5034	-0.66312	-1.2354	0.68499	-3.6814	-0.0592	0.0182	-0.0073	-0.0462	0.0165	0.9585
30.341	31.37	778.6107	58.2798	-269.1376	-37.0198	664.9132	-0.092845	-5.6125	-0.6451	-2.0996	0.6236	-5.9513	-0.0592	0.0182	-0.0073	-0.0462	0.0165	0.9585
30.3539	34.8657	772.9214	57.871	-267.304	-35.1551	656.0646	0.32427	-7.6277	-0.62752	-2.9196	0.44667	-8.1184	-0.0592	0.0182	-0.0073	-0.0462	0.0165	0.9585
30.3669	38.2822	765.8399	57.5957	-264.8662	-33.441	646.2925	1.1094	-8.944	-0.58943	-3.4525	0.096632	-9.5437	-0.0592	0.0182	-0.0073	-0.0462	0.0165	0.9585
30.3798	41.5072	757.9978	57.4834	-262.049	-31.9545	636.1833	2.3647	-8.6147	-0.49328	-3.3179	-0.49804	-9.228	-0.0592	0.0182	-0.0073	-0.0462	0.0165	0.9585
30.3927	44.4117	750.0622	57.5376	-259.0961	-30.7491	626.3399	4.1554	-5.3207	-0.30406	-1.985	-1.3921	-5.7646	-0.0592	0.0182	-0.0073	-0.0462	0.0165	0.9585
30.4056	46.8973	742.5682	57.7127	-256.2133	-29.8215	617.2352	6.4722	2.6094	0.023634	1.2197	-2.6163	2.634	-0.0592	0.0182	-0.0073	-0.0462	0.0165	0.9585
30.4186	48.8947	735.7464	57.9265	-253.5038	-29.1215	609.0836	9.1591	17.082	0.51763	7.0635	-4.1239	18.0149	-0.0592	0.0182	-0.0073	-0.0462	0.0165	0.9585
30.4315	50.4093	729.3887	58.0474	-250.9199	-28.5344	601.6982	11.8315	39.9235	1.1902	16.2832	-5.7581	42.3449	-0.0592	0.0182	-0.0073	-0.0462	0.0165	0.9585
30.4444	51.4841	722.7865	57.9067	-248.2415	-27.9022	594.4583	13.7665	72.338	2.0016	29.365	-7.1781	76.9242	-0.0592	0.0182	-0.0073	-0.0462	0.0165	0.9585
30.4574	52.201	714.7295	57.3115	-245.0795	-27.0375	586.3156	13.8382	114.0787	2.8544	46.2088	-7.8314	121.5054	-0.0592	0.0182	-0.0073	-0.0462	0.0165	0.9585
30.4703	52.6337	703.6262	56.0804	-240.9179	-25.7671	575.9096	10.7396	162.5317	3.5595	65.7578	-7.0232	173.3399	-0.0592	0.0182	-0.0073	-0.0462	0.0165	0.9585
30.4832	52.8206	687.7302	54.0551	-235.1894	-23.9581	561.7547	4.3213	212.6349	3.7182	85.9405	-4.2992	227.0847	-0.0592	0.0182	-0.0073	-0.0462	0.0165	0.9585
30.4961	52.7322	665.4523	51.1686	-227.3739	-21.5824	542.5129	-3.8225	258.16	2.6932	104.2155	0.32247	276.021	-0.0592	0.0182	-0.0073	-0.0462	0.0165	0.9585
30.5091	52.249	635.6921	47.4908	-217.0974	-18.7501	517.293	-11.9418	294.8717	0.49386	118.8637	6.097	315.4648	-0.0592	0.0182	-0.0073	-0.0462	0.0165	0.9585
30.522	51.2317	598.0771	43.2234	-204.2183	-15.6737	485.8164	-19.0174	322.2703	-2.6142	129.6792	12.3196	344.7572	-0.0592	0.0182	-0.0073	-0.0462	0.0165	0.9585
30.5349	49.5728	553.0738	38.5958	-188.874	-12.5691	448.5085	-24.678	342.77	-6.1182	137.6514	18.3116	366.4373	-0.0592	0.0182	-0.0073	-0.0462	0.0165	0.9585
30.5479	47.1894	501.8888	33.7737	-171.4568	-9.5946	406.3775	-29.0766	360.3008	-9.6496	144.3783	23.7546	384.6834	-0.0592	0.0182	-0.0073	-0.0462	0.0165	0.9585
30.5608	43.9818	446.2753	28.8497	-152.5444	-6.8556	360.8856	-32.5049	378.9678	-12.8959	151.5312	28.4574	403.7795	-0.0592	0.0182	-0.0073	-0.0462	0.0165	0.9585
30.5737	39.8761	388.2461	23.9085	-132.8053	-4.4437	313.6729	-35.2199	402.1904	-15.9258	160.4803	32.6004	427.257	-0.0592	0.0182	-0.0073	-0.0462	0.0165	0.9585
30.5866	34.8027	329.8876	19.0882	-112.9347	-2.4868	266.4227	-37.4069	432.1895	-18.9506	172.1007	36.4865	457.366	-0.0592	0.0182	-0.0073	-0.0462	0.0165	0.9585
30.5996	28.8014	273.2358	14.5846	-93.6186	-1.1162	220.7395	-39.2796	469.611	-22.3805	186.6199	40.6164	494.7604	-0.0592	0.0182	-0.0073	-0.0462	0.0165	0.9585
30.6125	22.0905	220.1948	10.6119	-75.5049	-0.41482	178.0957	-41.0405	513.5277	-26.5011	203.6385	45.3613	538.4619	-0.0592	0.0182	-0.0073	-0.0462	0.0165	0.9585
30.6254	15.0782	172.3909	7.338	-59.1539	-0.36212	139.732	-42.9034	561.8853	-31.5167	222.3069	51.0008	586.3603	-0.0592	0.0182	-0.0073	-0.0462	0.0165	0.9585
30.6384	8.3099	130.9436	4.848	-44.9574	-0.82797	106.4708	-44.972	612.089	-37.2802	241.5846	57.4272	635.7927	-0.0592	0.0182	-0.0073	-0.0462	0.0165	0.9585
30.6513	2.2959	96.3018	3.101	-33.0786	-1.5983	78.6385	-47.2371	661.4696	-43.4737	260.4173	64.3103	684.0553	-0.0592	0.0182	-0.0073	-0.0462	0.0165	0.9585
30.6642	-2.5696	68.268	1.9606	-23.4594	-2.4298	56.0474	-49.5602	707.5084	-49.6399	277.8265	71.1317	728.6082	-0.0592	0.0182	-0.0073	-0.0462	0.0165	0.9585
30.6771	-6.0571	46.2358	1.2672	-15.8941	-3.1179	38.225	-51.7475	747.9847	-55.3949	292.9591	77.4237	767.2348	-0.0592	0.0182	-0.0073	-0.0462	0.0165	0.9585
30.6901	-8.0494	29.4079	0.85707	-10.1114	-3.4944	24.5448	-53.6103	781.1169	-60.3949	305.1416	82.7626	798.1822	-0.0592	0.0182	-0.0073	-0.0462	0.0165	0.9585
30.703	-8.5661	16.9697	0.60383	-5.8342	-3.4718	14.3781	-54.946	805.6233	-64.4598	313.8995	86.8877	820.2095	-0.0592	0.0182	-0.0073	-0.0462	0.0165	0.9585
30.7159	-7.8092	8.1574	0.41671	-2.8048	-3.0583	7.1307	-55.5876	820.8317	-67.4856	319.0031	89.6364	832.6966	-0.0592	0.0182	-0.0073	-0.0462	0.0165	0.9585
30.7289	-6.2743	2.3501	0.26826	-0.81089	-2.4107	2.3144	-55.4001	826.7659	-69.4685	320.5015	90.9676	835.7108	-0.0592	0.0182	-0.0073	-0.0462	0.0165	0.9585
30.7418	-4.5475	-1.0148	0.15757	0.34562	-1.726	-0.48932	-54.3105	824.2185	-70.4152	318.7429	90.884	830.0786	-0.0592	0.0182	-0.0073	-0.0462	0.0165	0.9585
30.7547	-2.9458	-2.6004	0.091539	0.89214	-1.124	-1.8214	-52.3089	814.6686	-70.3953	314.3417	89.4803	817.2868	-0.0592	0.0182	-0.0073	-0.0462	0.0165	0.9585
30.7676	-1.6526	-3.0034	0.052512	1.0344	-0.65044	-2.1563	-49.4705	800.1412	-69.5037	308.1146	86.9088	799.3617	-0.0592	0.0182	-0.0073	-0.0462	0.0165	0.9585
30.7806	-0.70011	-2.7116	0.04366	0.93884	-0.32281	-1.9173	-45.924	782.8801	-67.9228	300.9489	83.4272	778.5317	-0.0592	0.0182	-0.0073	-0.0462	0.0165	0.9585
30.7935	-0.074631	-2.085	0.056433	0.72744	-0.12993	-1.4069	-41.8779	765.0625	-65.8359	293.6934	79.315	756.9503	-0.0592	0.0182	-0.0073	-0.0462	0.0165	0.9585
30.8064	0.28243	-1.361	0.085169	0.48007	-0.048576	-0.82404	-37.541	748.598	-63.4441	287.0874	74.8629	736.4873	-0.0592	0.0182	-0.0073	-0.0462	0.0165	0.9585
30.8194	0.45656	-0.68443	0.11977	0.24511	-0.041151	-0.29453	-33.106	735.0213	-60.8997	281.7212	70.3023	718.6299	-0.0592	0.0182	-0.0073	-0.0462	0.0165	0.9585
